<svg width="25" height="24" viewBox="0 0 25 24" fill="none" xmlns="http://www.w3.org/2000/svg">
<path d="M12.2665 2.625C9.72041 2.625 9.40081 2.63616 8.40088 2.68163C7.40281 2.72738 6.72153 2.88534 6.12547 3.11719C5.50878 3.35662 4.98575 3.67697 4.46469 4.19822C3.94316 4.71937 3.62281 5.24241 3.38263 5.85881C3.15013 6.45506 2.99197 7.13662 2.94706 8.13422C2.90234 9.13425 2.89062 9.45394 2.89062 12.0001C2.89062 14.5463 2.90188 14.8648 2.94725 15.8647C2.99319 16.8628 3.15116 17.5441 3.38281 18.1402C3.62244 18.7568 3.94278 19.2799 4.46403 19.8009C4.985 20.3225 5.50803 20.6436 6.12425 20.883C6.72078 21.1148 7.40216 21.2728 8.40003 21.3186C9.40006 21.364 9.71938 21.3752 12.2653 21.3752C14.8117 21.3752 15.1302 21.364 16.1302 21.3186C17.1283 21.2728 17.8103 21.1148 18.4068 20.883C19.0232 20.6436 19.5455 20.3225 20.0664 19.8009C20.5879 19.2799 20.9082 18.7568 21.1484 18.1404C21.3789 17.5441 21.5371 16.8626 21.584 15.8649C21.6289 14.865 21.6406 14.5463 21.6406 12.0001C21.6406 9.45394 21.6289 9.13444 21.584 8.13441C21.5371 7.13634 21.3789 6.45516 21.1484 5.85909C20.9082 5.24241 20.5879 4.71937 20.0664 4.19822C19.5449 3.67678 19.0234 3.35644 18.4062 3.11728C17.8086 2.88534 17.1269 2.72728 16.1289 2.68163C15.1288 2.63616 14.8105 2.625 12.2636 2.625H12.2665ZM11.4254 4.31447C11.6751 4.31409 11.9536 4.31447 12.2665 4.31447C14.7697 4.31447 15.0663 4.32347 16.0548 4.36838C16.9689 4.41019 17.465 4.56291 17.7955 4.69125C18.233 4.86112 18.5449 5.06428 18.8728 5.3925C19.201 5.72062 19.404 6.03309 19.5744 6.47062C19.7027 6.80062 19.8556 7.29675 19.8973 8.21081C19.9422 9.19913 19.9519 9.49594 19.9519 11.9979C19.9519 14.4999 19.9422 14.7968 19.8973 15.7851C19.8554 16.6991 19.7027 17.1952 19.5744 17.5253C19.4045 17.9629 19.201 18.2744 18.8728 18.6023C18.5447 18.9305 18.2332 19.1335 17.7955 19.3035C17.4654 19.4324 16.9689 19.5848 16.0548 19.6266C15.0665 19.6715 14.7697 19.6812 12.2665 19.6812C9.76316 19.6812 9.46644 19.6715 8.47822 19.6266C7.56416 19.5844 7.06803 19.4317 6.73728 19.3033C6.29984 19.1333 5.98728 18.9303 5.65916 18.6022C5.33103 18.274 5.12797 17.9623 4.95762 17.5246C4.82928 17.1945 4.67638 16.6984 4.63475 15.7843C4.58984 14.796 4.58084 14.4992 4.58084 11.9956C4.58084 9.492 4.58984 9.19678 4.63475 8.20847C4.67656 7.29441 4.82928 6.79828 4.95762 6.46781C5.12759 6.03028 5.33103 5.71781 5.65925 5.38969C5.98747 5.06156 6.29984 4.85841 6.73737 4.68816C7.06784 4.55925 7.56416 4.40691 8.47822 4.36491C9.34306 4.32581 9.67822 4.31409 11.4254 4.31212V4.31447ZM17.2708 5.87109C16.6498 5.87109 16.1458 6.37453 16.1458 6.99572C16.1458 7.61681 16.6498 8.12072 17.2708 8.12072C17.8919 8.12072 18.3958 7.61681 18.3958 6.99572C18.3958 6.37463 17.8919 5.87072 17.2708 5.87072V5.87109ZM12.2665 7.18556C9.60772 7.18556 7.45203 9.34125 7.45203 12.0001C7.45203 14.6589 9.60772 16.8136 12.2665 16.8136C14.9253 16.8136 17.0802 14.6589 17.0802 12.0001C17.0802 9.34134 14.9251 7.18556 12.2663 7.18556H12.2665ZM12.2665 8.87503C13.9923 8.87503 15.3915 10.2741 15.3915 12.0001C15.3915 13.7259 13.9923 15.1252 12.2665 15.1252C10.5406 15.1252 9.1415 13.7259 9.1415 12.0001C9.1415 10.2741 10.5405 8.87503 12.2665 8.87503Z" fill="white"/>
</svg>
