<svg width="21" height="19" viewBox="0 0 21 19" fill="none" xmlns="http://www.w3.org/2000/svg">
<path d="M16.5673 19H19.8195C19.9374 19 20.0504 18.9555 20.1337 18.8762C20.2171 18.7969 20.2639 18.6893 20.264 18.5771L20.2656 12.0379C20.2656 8.62008 19.4917 5.99295 15.2947 5.99295C13.6993 5.93649 12.1947 6.71918 11.3828 8.02613C11.3789 8.03248 11.3728 8.03742 11.3656 8.0402C11.3584 8.04297 11.3505 8.04343 11.343 8.0415C11.3355 8.03957 11.3289 8.03536 11.3241 8.02951C11.3194 8.02366 11.3168 8.0165 11.3167 8.00911V6.73145C11.3167 6.61927 11.2699 6.51169 11.1866 6.43237C11.1032 6.35305 10.9902 6.30848 10.8723 6.30848H7.78596C7.66808 6.30848 7.55504 6.35305 7.47169 6.43237C7.38834 6.51169 7.34151 6.61927 7.34151 6.73145V18.5765C7.34151 18.6887 7.38834 18.7963 7.47169 18.8756C7.55504 18.9549 7.66808 18.9995 7.78596 18.9995H11.038C11.1558 18.9995 11.2689 18.9549 11.3522 18.8756C11.4356 18.7963 11.4824 18.6887 11.4824 18.5765V12.7213C11.4824 11.0658 11.8124 9.46241 13.9692 9.46241C16.0953 9.46241 16.1228 11.3569 16.1228 12.8286V18.577C16.1228 18.6892 16.1697 18.7968 16.253 18.8761C16.3364 18.9554 16.4494 19 16.5673 19ZM0.265625 2.28696C0.265625 3.54146 1.35085 4.5737 2.66918 4.5737C3.98718 4.5736 5.07174 3.54072 5.07174 2.28643C5.07151 1.03213 3.98685 0 2.66874 0C1.35029 0 0.265625 1.03245 0.265625 2.28696ZM1.03885 19H4.29518C4.41305 19 4.5261 18.9554 4.60945 18.8761C4.6928 18.7968 4.73962 18.6892 4.73962 18.577V6.73145C4.73962 6.61927 4.6928 6.51169 4.60945 6.43237C4.5261 6.35305 4.41305 6.30848 4.29518 6.30848H1.03885C0.920973 6.30848 0.807927 6.35305 0.724578 6.43237C0.641228 6.51169 0.594403 6.61927 0.594403 6.73145V18.577C0.594403 18.6892 0.641228 18.7968 0.724578 18.8761C0.807927 18.9554 0.920973 19 1.03885 19Z" fill="white"/>
</svg>
